<svg width="6989" height="11122" viewBox="0 0 6989 11122" fill="none" xmlns="http://www.w3.org/2000/svg">
<g clip-path="url(#clip0_10_52)">
<path d="M1615.01 2330.44H2678.45C2974.36 2330.44 3214.79 2425.99 3399.74 2617.1C3590.85 2808.21 3686.4 3051.72 3686.4 3347.64L3408.99 8368.91L2844.9 8896H1615.01V2330.44ZM2706.19 8239.44C2761.68 8202.45 2789.42 8162.38 2789.42 8119.23L2891.14 2996.24C2891.14 2959.25 2854.15 2940.76 2780.17 2940.76H2364.04C2345.55 2940.76 2327.05 2946.92 2308.56 2959.25C2290.07 2971.58 2280.82 2983.91 2280.82 2996.24V8230.2L2364.04 8285.68L2706.19 8239.44Z" fill="white"/>
<path d="M5669.05 8700.35L4606.16 8734.36C4310.39 8743.82 4067.03 8656.01 3876.07 8470.91C3678.95 8286.01 3575.65 8045.68 3566.19 7749.92L3682.88 2722.34L4229.82 2177.48L5459.08 2138.14L5669.05 8700.35ZM4389.45 2829.26C4335.18 2868.01 4308.73 2908.95 4310.11 2952.08L4372.28 8075.7C4373.47 8112.67 4411.03 8129.97 4484.97 8127.61L4900.88 8114.3C4919.37 8113.71 4937.66 8106.95 4955.75 8094.04C4973.84 8081.12 4982.69 8068.5 4982.29 8056.18L4814.91 2824.9L4729.95 2772.11L4389.45 2829.26Z" fill="white"/>
</g>
<path d="M884.809 5549.44C884.536 5191.86 984.9 4921.36 1185.9 4737.95C1391.37 4554.53 1684.07 4462.68 2064 4462.39L2332.18 4462.19L2332.71 5159.47L2010.89 5159.71C1706.95 5159.94 1555.07 5287.45 1555.27 5542.22C1555.36 5667.38 1591.19 5761.22 1662.76 5823.74C1738.79 5890.73 1859.5 5924.16 2024.88 5924.03C2221.55 5923.88 2393.6 5879.05 2541.04 5789.55C2692.94 5700.03 2873.84 5534.52 3083.73 5292.99C3351.69 4988.84 3592.89 4776.34 3807.35 4655.5C4026.28 4534.65 4272.07 4474.12 4544.72 4473.91C4915.71 4473.63 5201.85 4567.28 5403.13 4754.85C5608.88 4942.43 5711.89 5215 5712.16 5572.58C5712.43 5925.69 5609.83 6191.72 5404.36 6370.67C5203.36 6554.08 4912.89 6645.93 4532.97 6646.22L4338.53 6646.37L4338 5949.09L4579.37 5948.9C4740.28 5948.78 4856.47 5917.41 4927.94 5854.77C5003.87 5792.14 5041.8 5700.48 5041.71 5579.8C5041.52 5333.96 4891.69 5211.16 4592.21 5211.38C4422.36 5211.51 4263.72 5256.33 4116.29 5345.84C3968.86 5439.82 3790.19 5607.57 3580.3 5849.1C3312.35 6157.71 3068.91 6370.21 2849.98 6486.59C2631.05 6602.97 2374.08 6661.28 2079.08 6661.5C1694.68 6661.79 1399.6 6565.92 1193.85 6373.87C988.098 6186.3 885.084 5911.49 884.809 5549.44Z" fill="black"/>
<defs>
<clipPath id="clip0_10_52">
<rect width="5895.06" height="11121.4" fill="white" transform="translate(731.539)"/>
</clipPath>
</defs>
</svg>
