<svg width="613" height="170" viewBox="0 0 613 170" fill="none" xmlns="http://www.w3.org/2000/svg">
<path d="M108.719 131.296V38.1865" stroke="#FF005C" stroke-width="3.18014"/>
<path d="M180.854 102.2C177.882 102.2 175.281 102.144 173.052 102.033C170.823 101.959 168.724 101.866 166.755 101.754C164.786 101.68 162.743 101.624 160.625 101.587C158.507 101.587 156.074 101.643 153.325 101.754C153.027 100.974 152.786 100.008 152.6 98.8564C152.414 97.6676 152.303 96.4231 152.266 95.1228C152.266 93.8225 152.303 92.5964 152.377 91.4446C152.489 90.2558 152.675 89.2713 152.935 88.4912C153.715 88.2683 154.383 87.8597 154.941 87.2652C155.498 86.6337 155.925 85.6676 156.223 84.3675C156.52 83.0672 156.668 81.3024 156.668 79.0733C156.668 76.9557 156.483 75.3397 156.111 74.2251C155.777 73.1106 155.331 72.3305 154.773 71.8847C154.216 71.4388 153.603 71.1602 152.935 71.0487C152.563 69.9714 152.303 68.6154 152.154 66.9808C152.006 65.309 152.006 63.6186 152.154 61.9096C152.34 60.1635 152.675 58.6774 153.157 57.4514C155.535 57.6744 157.783 57.7859 159.9 57.7859C162.055 57.7859 164.266 57.7486 166.532 57.6744C168.798 57.5629 171.269 57.4701 173.944 57.3958C176.618 57.2843 179.683 57.2286 183.138 57.2286C191.014 57.2286 197.034 58.8632 201.194 62.1326C205.392 65.4017 207.491 70.6402 207.491 77.8475C207.491 80.2622 207.268 82.6585 206.823 85.0361C206.413 87.3767 205.652 89.5873 204.537 91.6676C203.459 93.711 201.918 95.5313 199.913 97.1289C197.905 98.6892 195.343 99.9338 192.222 100.863C189.138 101.754 185.349 102.2 180.854 102.2ZM178.346 82.9743H181.745V75.7855H178.346V82.9743ZM234.445 102.757C228.39 102.757 223.449 101.921 219.622 100.25C215.834 98.5407 213.047 96.1071 211.264 92.9494C209.481 89.7915 208.589 85.9836 208.589 81.5254C208.589 76.3985 209.535 72.2748 211.43 69.1541C213.363 66.0333 216.354 63.7671 220.402 62.3554C224.452 60.9065 229.671 60.182 236.061 60.182C240.817 60.182 245.052 60.6835 248.767 61.6868C252.52 62.6898 255.473 64.1759 257.628 66.1448C259.783 68.0766 260.861 70.4729 260.861 73.3336C260.861 74.3738 260.693 75.4326 260.358 76.51C260.062 77.5502 259.43 78.4976 258.465 79.3521C257.497 80.2066 256.05 80.8939 254.117 81.4139C252.185 81.934 249.603 82.1942 246.371 82.1942C244.216 82.1942 242.266 82.1755 240.519 82.1384C238.811 82.064 237.232 81.9527 235.783 81.804H232.997V85.9279H235.727V83.6988C243.604 83.3273 251.925 83.3273 260.693 83.6988C260.693 87.8225 259.802 91.2961 258.017 94.1195C256.235 96.9431 253.431 99.0979 249.603 100.584C245.778 102.033 240.725 102.757 234.445 102.757ZM232.997 78.9063H235.727V75.6742H232.997V78.9063ZM291.69 102.757C288.049 102.757 285.039 102.46 282.662 101.866C280.321 101.271 278.426 100.417 276.977 99.3022C275.566 98.1504 274.414 96.7759 273.522 95.1783L272.074 95.9028C272.334 96.4601 272.538 96.9989 272.687 97.5189C272.835 98.0391 272.91 98.5407 272.91 99.0235C272.91 99.878 272.594 100.547 271.961 101.03C271.368 101.513 270.624 101.847 269.733 102.033C268.841 102.219 267.949 102.311 267.058 102.311C265.721 102.311 264.234 102.144 262.601 101.81C262.228 100.807 261.95 99.525 261.764 97.9647C261.615 96.3673 261.577 94.7325 261.652 93.0607C261.727 91.3519 261.912 89.8658 262.21 88.6027C262.767 88.417 263.306 88.064 263.826 87.5439C264.346 87.0237 264.772 86.1136 265.107 84.8133C265.442 83.4758 265.609 81.5812 265.609 79.1291C265.609 77.0487 265.48 75.3954 265.22 74.1694C264.997 72.9063 264.699 71.9405 264.327 71.2717C263.992 70.5657 263.622 70.0642 263.212 69.7671C262.842 69.4699 262.507 69.2469 262.21 69.0984C261.837 67.8723 261.577 66.4605 261.43 64.8632C261.317 63.2656 261.336 61.6868 261.486 60.1263C261.671 58.5289 261.987 57.1914 262.432 56.114C264.29 56.3368 266.37 56.5226 268.675 56.6713C270.977 56.7828 273.54 56.8386 276.365 56.8386C279.113 56.8386 281.696 56.7641 284.11 56.6156C286.525 56.4298 288.513 56.2626 290.073 56.114C290.371 56.8571 290.575 57.7672 290.687 58.8447C290.835 59.922 290.909 60.925 290.909 61.8538C289.757 62.4854 288.698 63.2284 287.733 64.0829C286.766 64.9002 285.875 65.7547 285.058 66.6463L286.283 67.7051C288.031 65.8477 290.017 64.2502 292.247 62.9126C294.475 61.5753 296.853 60.9065 299.38 60.9065C304.655 60.9065 308.668 62.7083 311.416 66.312C314.203 69.9157 315.597 74.9311 315.597 81.3582C315.597 85.8534 314.761 89.6986 313.088 92.8937C311.453 96.0886 308.872 98.5407 305.342 100.25C301.814 101.921 297.262 102.757 291.69 102.757ZM288.234 84.0888H291.242V78.9063H288.234V84.0888ZM349.433 102.646C344.678 102.646 341.038 102.051 338.511 100.863C336.023 99.6737 334.741 97.5747 334.666 94.5655C334.221 95.8286 334.071 97.0174 334.221 98.1319C334.406 99.2092 334.685 100.287 335.055 101.364C331.378 101.476 328.035 101.587 325.025 101.698C322.017 101.81 319.527 101.847 317.557 101.81C317.075 99.0607 316.796 96.3301 316.723 93.618C316.685 90.9061 316.889 88.0455 317.335 85.0361C320.047 85.0361 322.647 85.3706 325.137 86.0392C327.663 86.6709 329.892 87.6925 331.825 89.1043L332.884 87.8225C331.806 87.0424 330.672 86.4107 329.483 85.9279C328.332 85.4076 327.105 84.9433 325.805 84.5346C324.06 83.9403 322.462 83.16 321.012 82.1942C319.602 81.2282 318.487 80.0021 317.669 78.5161C316.852 77.03 316.444 75.2097 316.444 73.0548C316.444 70.7515 316.964 68.6339 318.004 66.702C319.082 64.7702 320.771 63.2284 323.076 62.0768C325.378 60.888 328.351 60.2935 331.991 60.2935C336.709 60.2935 340.333 60.925 342.858 62.1883C345.421 63.4141 346.74 65.6247 346.814 68.8196C347.297 67.5193 347.465 66.312 347.316 65.1975C347.205 64.0459 346.927 62.8384 346.48 61.5753C349.117 61.5381 351.384 61.501 353.279 61.4638C355.21 61.3895 356.957 61.3338 358.517 61.2966C360.077 61.2223 361.582 61.1851 363.031 61.1851C363.551 63.6371 363.83 66.2935 363.867 69.1541C363.905 72.0147 363.718 74.9311 363.31 77.9031C360.598 77.866 358.313 77.5873 356.456 77.0672C354.598 76.5472 352.795 75.7484 351.05 74.6709L350.103 76.0084C351.031 76.6029 351.886 77.0858 352.666 77.4573C353.446 77.7918 354.151 78.0888 354.783 78.349C357.049 79.2778 358.906 80.2809 360.356 81.3582C361.804 82.3985 362.882 83.6801 363.589 85.2034C364.294 86.6894 364.648 88.547 364.648 90.7761C364.648 93.488 364.165 95.6428 363.198 97.2404C362.233 98.8377 360.97 100.027 359.41 100.807C357.885 101.55 356.233 102.033 354.449 102.256C352.703 102.516 351.031 102.646 349.433 102.646ZM366.763 101.81C366.466 101.067 366.225 100.12 366.039 98.9677C365.854 97.7789 365.742 96.5344 365.704 95.2341C365.704 93.9338 365.742 92.7079 365.817 91.5561C365.927 90.3673 366.114 89.4015 366.374 88.6585C366.93 88.4355 367.469 88.0825 367.989 87.5997C368.509 87.1167 368.937 86.3922 369.272 85.4263C369.642 84.4603 369.829 83.1415 369.829 81.4697C369.829 79.8351 369.605 78.5718 369.16 77.6803C368.752 76.7515 368.267 76.0827 367.71 75.6742C367.19 75.2282 366.745 74.9124 366.374 74.7267C366.039 74.0951 365.798 73.2036 365.648 72.0518C365.501 70.863 365.426 69.5814 365.426 68.2066C365.463 66.8321 365.575 65.5132 365.761 64.2502C365.946 62.9869 366.225 61.9468 366.597 61.1295C367.005 61.1665 367.358 61.2223 367.656 61.2966C367.953 61.3338 368.286 61.3708 368.658 61.408C368.509 63.7114 368.974 65.699 370.052 67.3708C371.129 69.0054 372.596 70.1757 374.454 70.8817C376.349 71.5875 378.354 71.736 380.472 71.3275C378.689 71.253 377.035 70.7887 375.512 69.9342C374.027 69.0426 372.819 67.8723 371.891 66.4235C370.998 64.9374 370.553 63.2841 370.553 61.4638C370.553 59.9405 370.905 58.4732 371.612 57.0614C372.355 55.6125 373.58 54.4237 375.29 53.4949C376.998 52.5289 379.302 52.0459 382.2 52.0459C386.843 52.0459 390.225 53.2162 392.343 55.5568C394.496 57.8601 395.573 61.278 395.573 65.8105C395.573 67.9281 395.388 69.8784 395.016 71.6618C394.683 73.4078 394.329 75.0982 393.957 76.7329C393.624 78.3303 393.456 79.9651 393.456 81.6369C393.456 83.2343 393.624 84.5161 393.957 85.4819C394.329 86.4479 394.775 87.1724 395.295 87.6552C395.852 88.1012 396.391 88.4355 396.911 88.6585C397.171 89.4015 397.339 90.3673 397.412 91.5561C397.525 92.7079 397.562 93.9338 397.525 95.2341C397.525 96.5344 397.431 97.7789 397.246 98.9677C397.061 100.12 396.819 101.067 396.522 101.81C395.482 101.698 394.126 101.568 392.453 101.42C390.818 101.308 389.035 101.197 387.103 101.086C385.173 101.011 383.24 100.974 381.308 100.974C379.525 100.974 377.705 101.011 375.847 101.086C374.027 101.197 372.317 101.308 370.72 101.42C369.122 101.568 367.803 101.698 366.763 101.81ZM414.342 110.503C409.327 110.503 405.443 109.537 402.695 107.605C399.945 105.674 398.57 102.479 398.57 98.0204C398.57 96.1629 398.924 94.3053 399.629 92.4479C400.372 90.5903 401.468 88.9742 402.918 87.5997C404.813 88.937 407.228 89.9773 410.161 90.7203L410.608 89.16C407.413 88.3425 404.942 87.2282 403.196 85.8164C401.449 84.4046 400.243 82.7885 399.573 80.9681C398.905 79.1478 398.57 77.253 398.57 75.2839C398.57 72.6091 399.221 70.1572 400.521 67.9281C401.822 65.6619 403.808 63.8414 406.483 62.4668C409.158 61.0923 412.557 60.405 416.682 60.405C418.875 60.405 420.676 60.6465 422.086 61.1295C423.499 61.6123 424.632 62.2253 425.487 62.9684C426.34 63.6744 426.954 64.4359 427.326 65.2532C427.697 62.244 428.533 59.7735 429.833 57.8416C431.17 55.9098 432.824 54.4795 434.794 53.5507C436.762 52.5847 438.898 52.1016 441.201 52.1016C443.133 52.1016 444.879 52.5289 446.441 53.3834C448.001 54.2007 449.226 55.3895 450.118 56.9499C451.046 58.5102 451.51 60.405 451.51 62.6341C451.51 64.8259 451.102 66.6463 450.285 68.0953C449.505 69.5441 448.446 70.6402 447.109 71.3832C445.771 72.089 444.286 72.442 442.651 72.442C441.164 72.442 439.828 72.3305 438.638 72.1075C437.448 71.8475 436.408 71.5132 435.518 71.1045L434.738 72.4978C435.406 72.8691 436.186 73.1663 437.078 73.3893C438.49 73.7979 439.901 74.0581 441.313 74.1694C442.726 74.2809 444.044 74.3738 445.27 74.4481C446.495 74.4852 447.572 74.6524 448.502 74.9496C449.467 75.2469 450.21 75.7855 450.73 76.5657C451.288 77.346 451.566 78.5161 451.566 80.0764C451.566 82.4542 450.62 84.4418 448.725 86.0392C446.867 87.5997 444.323 88.7885 441.091 89.6058C437.858 90.3859 434.18 90.8689 430.056 91.0546L430.112 92.6707C432.824 92.6336 435.295 92.6522 437.523 92.7264C439.791 92.8007 441.796 93.098 443.541 93.618C445.288 94.1382 446.755 95.0113 447.945 96.2373C449.133 97.4632 450.025 99.1722 450.62 101.364C451.25 103.593 451.566 106.435 451.566 109.89C449.524 110.373 447.331 110.615 444.991 110.615C442.688 110.652 440.458 110.447 438.303 110.002C437.523 109.444 436.427 109.147 435.017 109.11C433.642 109.073 431.951 109.166 429.945 109.389C427.938 109.649 425.635 109.89 423.035 110.113C420.435 110.373 417.537 110.503 414.342 110.503ZM423.592 76.5657H426.546V72.2748H423.592V76.5657ZM453.72 101.81C453.347 100.621 453.07 99.2092 452.883 97.5746C452.736 95.9401 452.698 94.3053 452.773 92.6707C452.846 91.0361 453.033 89.68 453.33 88.6027C454.183 88.3797 454.964 87.804 455.671 86.8752C456.376 85.9091 456.729 84.3118 456.729 82.0827C456.729 80.1879 456.524 78.7205 456.116 77.6803C455.744 76.6029 455.317 75.8412 454.834 75.3954C454.352 74.9496 453.923 74.7081 453.553 74.6709C453.181 73.4451 452.921 71.996 452.773 70.3244C452.661 68.6154 452.679 66.925 452.827 65.2532C453.014 63.5814 453.33 62.2068 453.776 61.1295C455.521 61.3523 457.491 61.5381 459.683 61.6868C461.874 61.7981 464.122 61.8538 466.425 61.8538C468.728 61.8538 470.995 61.8353 473.223 61.7981C475.453 61.7238 477.292 61.6495 478.742 61.5753C478.257 62.0953 477.737 62.9869 477.181 64.2502C476.66 65.4762 476.233 66.7763 475.898 68.1511C475.601 69.5256 475.509 70.733 475.619 71.7732C476.624 68.4668 478.536 65.8105 481.361 63.8044C484.183 61.761 488.029 60.7393 492.895 60.7393C495.013 60.7393 496.814 60.925 498.301 61.2966C499.824 61.631 501.068 62.2626 502.035 63.1914C503.038 64.1201 503.818 65.4762 504.375 67.2593C504.895 68.7826 505.137 70.3429 505.099 71.9405C505.062 73.5008 504.952 75.0797 504.764 76.6772C504.579 78.2375 504.486 79.7979 504.486 81.3582C504.486 83.0672 504.654 84.4231 504.989 85.4263C505.322 86.3922 505.75 87.1167 506.27 87.5997C506.828 88.0825 507.367 88.417 507.887 88.6027C508.22 89.68 508.407 91.0361 508.444 92.6707C508.517 94.3053 508.48 95.9401 508.332 97.5746C508.182 99.2092 507.922 100.621 507.552 101.81C506.139 101.661 504.432 101.476 502.424 101.253C500.419 101.067 497.892 100.974 494.846 100.974C492.096 100.974 489.534 101.067 487.156 101.253C484.816 101.476 482.977 101.661 481.639 101.81C481.452 100.807 481.304 99.488 481.192 97.8534C481.082 96.1816 481.044 94.454 481.082 92.6707C481.157 90.8874 481.304 89.3458 481.527 88.0455V80.3551H479.466V88.0455C479.726 89.3458 479.873 90.8874 479.911 92.6707C479.986 94.454 479.967 96.1816 479.855 97.8534C479.744 99.488 479.559 100.807 479.299 101.81C478.407 101.698 477.423 101.568 476.345 101.42C475.305 101.308 474.022 101.197 472.499 101.086C470.976 101.011 469.081 100.974 466.816 100.974C464.029 100.974 461.522 101.067 459.292 101.253C457.1 101.438 455.242 101.624 453.72 101.81ZM534.357 102.757C528.301 102.757 523.361 101.921 519.533 100.25C515.745 98.5407 512.958 96.1071 511.175 92.9494C509.393 89.7915 508.5 85.9836 508.5 81.5254C508.5 76.3985 509.447 72.2748 511.342 69.1541C513.274 66.0333 516.265 63.7671 520.314 62.3554C524.364 60.9065 529.583 60.182 535.973 60.182C540.728 60.182 544.963 60.6835 548.678 61.6868C552.431 62.6898 555.385 64.1759 557.54 66.1448C559.695 68.0766 560.772 70.4729 560.772 73.3336C560.772 74.3738 560.604 75.4326 560.271 76.51C559.974 77.5502 559.341 78.4976 558.376 79.3521C557.409 80.2066 555.961 80.8939 554.029 81.4139C552.096 81.934 549.515 82.1942 546.282 82.1942C544.129 82.1942 542.178 82.1755 540.431 82.1384C538.723 82.064 537.144 81.9527 535.694 81.804H532.909V85.9279H535.64V83.6988C543.515 83.3273 551.836 83.3273 560.604 83.6988C560.604 87.8225 559.714 91.2961 557.929 94.1195C556.146 96.9431 553.342 99.0979 549.515 100.584C545.689 102.033 540.636 102.757 534.357 102.757ZM532.909 78.9063H535.64V75.6742H532.909V78.9063ZM562.832 101.81C562.462 100.621 562.183 99.2092 561.998 97.5746C561.848 95.9401 561.811 94.3053 561.885 92.6707C561.96 91.0361 562.145 89.68 562.443 88.6027C563.298 88.3797 564.078 87.804 564.783 86.8752C565.488 85.9091 565.842 84.3118 565.842 82.0827C565.842 80.1879 565.638 78.7205 565.228 77.6803C564.858 76.6029 564.43 75.8412 563.947 75.3954C563.464 74.9496 563.038 74.7081 562.665 74.6709C562.293 73.4451 562.033 71.996 561.885 70.3244C561.773 68.6154 561.792 66.925 561.942 65.2532C562.127 63.5814 562.443 62.2068 562.888 61.1295C564.635 61.3523 566.603 61.5381 568.796 61.6868C570.988 61.7981 573.235 61.8538 575.539 61.8538C577.842 61.8538 580.108 61.8353 582.337 61.7981C584.565 61.7238 586.404 61.6495 587.854 61.5753C587.482 61.9838 587.093 62.5969 586.683 63.4141C586.275 64.1944 585.903 65.0489 585.57 65.9777C585.273 66.9065 585.05 67.7981 584.9 68.6526C584.752 69.4699 584.734 70.1014 584.844 70.5472C585.476 68.7639 586.46 67.0923 587.798 65.5318C589.135 63.9714 590.864 62.7083 592.982 61.7423C595.137 60.7393 597.681 60.2378 600.616 60.2378C604.406 60.2378 607.414 61.2966 609.644 63.4141C611.872 65.5317 612.987 68.8569 612.987 73.3893C612.987 77.773 611.705 81.2097 609.142 83.6988C606.615 86.1879 603.197 87.4324 598.887 87.4324C596.177 87.4324 594.003 86.7822 592.368 85.4819C590.77 84.1445 589.99 82.2498 590.028 79.7979H588.412C588.374 81.8782 588.746 83.6058 589.526 84.9804C590.344 86.3549 591.551 87.5252 593.148 88.4912C593.408 89.2713 593.575 90.2558 593.649 91.4446C593.762 92.6336 593.799 93.8967 593.762 95.2341C593.724 96.5344 593.612 97.7789 593.427 98.9677C593.242 100.12 593 101.067 592.703 101.81C591.476 101.698 589.916 101.568 588.021 101.42C586.127 101.308 584.12 101.197 582.003 101.086C579.885 101.011 577.861 100.974 575.929 100.974C573.143 100.974 570.635 101.067 568.405 101.253C566.214 101.438 564.357 101.624 562.832 101.81Z" fill="#FF005C"/>
<path d="M13.4707 35.5127H29.677C34.1864 35.5127 37.8505 36.969 40.6691 39.8815C43.5813 42.7939 45.0376 46.5048 45.0376 51.0144L40.8099 127.536L32.2136 135.569H13.4707V35.5127ZM30.0998 125.563C30.9453 124.999 31.3681 124.389 31.3681 123.731L32.9181 45.6592C32.9181 45.0956 32.3545 44.8137 31.227 44.8137H24.8855C24.6037 44.8137 24.3218 44.9078 24.0399 45.0956C23.7582 45.2836 23.6171 45.4714 23.6171 45.6592V125.422L24.8855 126.268L30.0998 125.563Z" fill="#FF005C"/>
<path d="M75.2515 132.59L59.0536 133.109C54.5464 133.253 50.8376 131.915 47.9274 129.094C44.9235 126.276 43.3493 122.614 43.2051 118.106L44.9833 41.4888L53.3185 33.1853L72.0517 32.5859L75.2515 132.59ZM55.7511 43.1182C54.9241 43.7086 54.5211 44.3324 54.5421 44.9898L55.4896 123.071C55.5075 123.635 56.08 123.898 57.2069 123.862L63.5451 123.659C63.8268 123.65 64.1055 123.547 64.3813 123.351C64.657 123.154 64.7917 122.962 64.7857 122.774L62.2348 43.0518L60.9402 42.2472L55.7511 43.1182Z" fill="#FF005C"/>
<path d="M4.22266 84.5701C4.21851 79.1208 5.74799 74.9986 8.81112 72.2034C11.9424 69.4083 16.403 68.0085 22.1929 68.004L26.2799 68.001L26.2879 78.6271L21.3836 78.6309C16.7516 78.6344 14.4371 80.5775 14.4401 84.4601C14.4415 86.3674 14.9876 87.7973 16.0782 88.7503C17.2369 89.7711 19.0765 90.2807 21.5969 90.2786C24.5939 90.2764 27.216 89.5932 29.4626 88.2291C31.7776 86.865 34.5344 84.3426 37.7331 80.6619C41.8166 76.0269 45.4924 72.7886 48.7607 70.9469C52.097 69.1052 55.8427 68.1828 59.9978 68.1796C65.6515 68.1753 70.0121 69.6025 73.0796 72.461C76.215 75.3194 77.7849 79.4734 77.789 84.9227C77.7931 90.3041 76.2296 94.3582 73.0983 97.0852C70.0351 99.8804 65.6087 101.28 59.8188 101.285L56.8556 101.287L56.8476 90.6606L60.5259 90.6578C62.978 90.6559 64.7487 90.1776 65.8378 89.2232C66.995 88.2688 67.5731 86.8719 67.5716 85.0327C67.5688 81.2863 65.2854 79.4149 60.7216 79.4182C58.1331 79.4203 55.7155 80.1033 53.4688 81.4674C51.2219 82.8996 48.4992 85.456 45.3005 89.1368C41.2172 93.8398 37.5073 97.0783 34.1709 98.8517C30.8344 100.625 26.9185 101.514 22.4228 101.517C16.5647 101.522 12.0679 100.061 8.93228 97.1341C5.79674 94.2755 4.22685 90.0876 4.22266 84.5701Z" fill="white"/>
</svg>
