<svg width="32769" height="9061" viewBox="0 0 32769 9061" fill="none" xmlns="http://www.w3.org/2000/svg">
<path d="M720.044 1898.4H1586.38C1827.44 1898.4 2023.31 1976.25 2173.98 2131.94C2329.66 2287.63 2407.51 2486 2407.51 2727.07L2181.51 6817.66L1721.98 7247.06H720.044V1898.4ZM1608.98 6712.2C1654.18 6682.06 1676.78 6649.42 1676.78 6614.26L1759.64 2440.8C1759.64 2410.67 1729.51 2395.6 1669.24 2395.6H1330.24C1315.18 2395.6 1300.11 2400.63 1285.04 2410.67C1269.98 2420.72 1262.44 2430.76 1262.44 2440.8V6704.66L1330.24 6749.86L1608.98 6712.2Z" fill="#FF005C"/>
<path d="M4022.68 7087.86L3156.79 7115.57C2915.85 7123.28 2717.59 7051.74 2562.02 6900.95C2401.44 6750.32 2317.29 6554.53 2309.58 6313.59L2404.64 2217.86L2850.21 1773.98L3851.63 1741.94L4022.68 7087.86ZM2980.25 2304.96C2936.04 2336.52 2914.5 2369.87 2915.62 2405.01L2966.27 6578.99C2967.23 6609.11 2997.83 6623.2 3058.07 6621.27L3396.89 6610.43C3411.95 6609.95 3426.85 6604.45 3441.59 6593.93C3456.33 6583.41 3463.53 6573.13 3463.21 6563.09L3326.85 2301.41L3257.64 2258.4L2980.25 2304.96Z" fill="#FF005C"/>
<path d="M225.762 4520.87C225.54 4229.57 307.301 4009.21 471.046 3859.79C638.432 3710.37 876.881 3635.54 1186.39 3635.3L1404.87 3635.14L1405.3 4203.18L1143.13 4203.38C895.52 4203.57 771.795 4307.44 771.953 4514.99C772.03 4616.95 801.219 4693.39 859.519 4744.33C921.462 4798.9 1019.8 4826.14 1154.53 4826.03C1314.74 4825.91 1454.91 4789.39 1575.01 4716.47C1698.76 4643.55 1846.13 4508.71 2017.12 4311.95C2235.41 4064.18 2431.91 3891.07 2606.62 3792.62C2784.97 3694.17 2985.2 3644.86 3207.32 3644.69C3509.55 3644.46 3742.65 3720.75 3906.63 3873.56C4074.24 4026.36 4158.16 4248.42 4158.38 4539.72C4158.6 4827.39 4075.02 5044.11 3907.63 5189.89C3743.88 5339.31 3507.26 5414.13 3197.75 5414.37L3039.35 5414.49L3038.92 4846.45L3235.55 4846.3C3366.63 4846.2 3461.29 4820.63 3519.51 4769.61C3581.37 4718.59 3612.27 4643.92 3612.19 4545.6C3612.04 4345.33 3489.98 4245.29 3246.01 4245.47C3107.64 4245.58 2978.4 4282.09 2858.3 4355.01C2738.19 4431.57 2592.64 4568.23 2421.65 4764.99C2203.37 5016.4 2005.05 5189.52 1826.7 5284.32C1648.34 5379.13 1439.01 5426.63 1198.68 5426.81C885.528 5427.05 645.142 5348.95 477.523 5192.5C309.907 5039.69 225.986 4815.82 225.762 4520.87Z" fill="white"/>
</svg>
