<svg width="32769" height="9061" viewBox="0 0 32769 9061" fill="none" xmlns="http://www.w3.org/2000/svg">
<line x1="5811.69" y1="7018.67" x2="5811.69" y2="2041.33" stroke="#FF005C" stroke-width="170"/>
<path d="M9667.87 5463.28C9508.99 5463.28 9369.97 5460.31 9250.82 5454.35C9131.66 5450.38 9019.45 5445.41 8914.19 5439.45C8808.94 5435.48 8699.71 5432.5 8586.51 5430.52C8473.31 5430.52 8343.22 5433.49 8196.26 5439.45C8180.37 5397.75 8167.46 5346.11 8157.53 5284.55C8147.6 5221 8141.65 5154.47 8139.66 5084.96C8139.66 5015.45 8141.65 4949.91 8145.62 4888.34C8151.58 4824.79 8161.51 4772.16 8175.41 4730.46C8217.11 4718.54 8252.86 4696.7 8282.65 4664.92C8312.44 4631.16 8335.28 4579.52 8351.17 4510.02C8367.06 4440.51 8375 4346.17 8375 4227.01C8375 4113.81 8365.07 4027.42 8345.21 3967.84C8327.34 3908.26 8303.5 3866.56 8273.71 3842.73C8243.92 3818.89 8211.16 3804 8175.41 3798.04C8155.55 3740.45 8141.65 3667.96 8133.7 3580.58C8125.76 3491.21 8125.76 3400.85 8133.7 3309.49C8143.63 3216.15 8161.51 3136.71 8187.32 3071.17C8314.43 3083.09 8434.58 3089.05 8547.78 3089.05C8662.97 3089.05 8781.13 3087.06 8902.28 3083.09C9023.42 3077.13 9155.49 3072.17 9298.48 3068.2C9441.47 3062.24 9605.31 3059.26 9790.01 3059.26C10211 3059.26 10532.8 3146.64 10755.2 3321.41C10979.6 3496.17 11091.8 3776.2 11091.8 4161.48C11091.8 4290.56 11079.9 4418.66 11056.1 4545.76C11034.2 4670.88 10993.5 4789.05 10933.9 4900.26C10876.3 5009.49 10793.9 5106.8 10686.7 5192.2C10579.4 5275.61 10442.4 5342.14 10275.6 5391.79C10110.7 5439.45 9908.17 5463.28 9667.87 5463.28ZM9533.82 4435.54H9715.53V4051.25H9533.82V4435.54ZM12532.7 5493.07C12209 5493.07 11944.9 5448.39 11740.3 5359.02C11537.8 5267.67 11388.8 5137.58 11293.5 4968.78C11198.2 4799.97 11150.5 4596.41 11150.5 4358.09C11150.5 4084.02 11201.1 3863.58 11302.4 3696.76C11405.7 3529.93 11565.6 3408.79 11782 3333.32C11998.5 3255.87 12277.5 3217.14 12619.1 3217.14C12873.3 3217.14 13099.7 3243.95 13298.3 3297.58C13498.9 3351.2 13656.8 3430.64 13772 3535.89C13887.2 3639.16 13944.8 3767.26 13944.8 3920.18C13944.8 3975.79 13935.8 4032.39 13917.9 4089.98C13902.1 4145.59 13868.3 4196.23 13816.7 4241.91C13765 4287.59 13687.6 4324.33 13584.3 4352.13C13481 4379.93 13343 4393.84 13170.2 4393.84C13055 4393.84 12950.8 4392.84 12857.4 4390.86C12766.1 4386.88 12681.7 4380.93 12604.2 4372.98H12455.3V4593.43H12601.2V4474.27C13022.3 4454.41 13467.1 4454.41 13935.8 4474.27C13935.8 4694.71 13888.2 4880.4 13792.8 5031.33C13697.5 5182.27 13547.6 5297.46 13343 5376.89C13138.5 5454.35 12868.4 5493.07 12532.7 5493.07ZM12455.3 4218.08H12601.2V4045.3H12455.3V4218.08ZM15592.8 5493.07C15398.2 5493.07 15237.3 5477.19 15110.2 5445.41C14985.1 5413.64 14883.8 5367.96 14806.3 5308.38C14730.9 5246.81 14669.3 5173.33 14621.6 5087.93L14544.2 5126.66C14558.1 5156.45 14569 5185.25 14577 5213.05C14584.9 5240.86 14588.9 5267.67 14588.9 5293.48C14588.9 5339.16 14572 5374.91 14538.2 5400.73C14506.5 5426.54 14466.7 5444.42 14419.1 5454.35C14371.4 5464.28 14323.7 5469.24 14276.1 5469.24C14204.6 5469.24 14125.1 5460.31 14037.8 5442.43C14017.9 5388.81 14003 5320.29 13993.1 5236.88C13985.1 5151.49 13983.1 5064.1 13987.1 4974.73C13991.1 4883.38 14001 4803.94 14016.9 4736.42C14046.7 4726.49 14075.5 4707.62 14103.3 4679.82C14131.1 4652.01 14153.9 4603.36 14171.8 4533.85C14189.7 4462.35 14198.6 4361.07 14198.6 4229.99C14198.6 4118.78 14191.7 4030.4 14177.8 3964.86C14165.9 3897.34 14150 3845.71 14130.1 3809.96C14112.2 3772.22 14092.4 3745.41 14070.5 3729.53C14050.7 3713.64 14032.8 3701.72 14016.9 3693.78C13997 3628.24 13983.1 3552.77 13975.2 3467.38C13969.2 3381.98 13970.2 3297.58 13978.2 3214.16C13988.1 3128.77 14005 3057.27 14028.8 2999.68C14128.1 3011.59 14239.3 3021.52 14362.5 3029.47C14485.6 3035.43 14622.6 3038.41 14773.6 3038.41C14920.5 3038.41 15058.6 3034.43 15187.6 3026.49C15316.7 3016.56 15423 3007.62 15506.4 2999.68C15522.3 3039.4 15533.2 3088.05 15539.2 3145.65C15547.1 3203.24 15551.1 3256.86 15551.1 3306.51C15489.5 3340.27 15432.9 3379.99 15381.3 3425.67C15329.6 3469.36 15282 3515.04 15238.3 3562.7L15303.8 3619.3C15397.2 3520.01 15503.4 3434.61 15622.6 3363.11C15741.7 3291.62 15868.8 3255.87 16003.9 3255.87C16285.9 3255.87 16500.4 3352.19 16647.3 3544.83C16796.3 3737.47 16870.8 4005.58 16870.8 4349.15C16870.8 4589.45 16826.1 4795 16736.7 4965.8C16649.3 5136.59 16511.3 5267.67 16322.6 5359.02C16134 5448.39 15890.7 5493.07 15592.8 5493.07ZM15408.1 4495.12H15568.9V4218.08H15408.1V4495.12ZM18679.6 5487.12C18425.4 5487.12 18230.8 5455.34 18095.7 5391.79C17962.7 5328.24 17894.2 5216.03 17890.2 5055.17C17866.4 5122.69 17858.4 5186.24 17866.4 5245.82C17876.3 5303.41 17891.2 5361.01 17911 5418.6C17714.4 5424.56 17535.7 5430.52 17374.8 5436.47C17214 5442.43 17080.9 5444.42 16975.6 5442.43C16949.8 5295.47 16934.9 5149.5 16931 5004.52C16929 4859.55 16939.9 4706.63 16963.7 4545.76C17108.7 4545.76 17247.7 4563.64 17380.8 4599.38C17515.8 4633.15 17635 4687.76 17738.3 4763.23L17794.9 4694.71C17737.3 4653.01 17676.7 4619.24 17613.1 4593.43C17551.6 4565.62 17486 4540.8 17416.5 4518.95C17323.2 4487.18 17237.8 4445.47 17160.3 4393.84C17084.9 4342.2 17025.3 4276.66 16981.6 4197.22C16937.9 4117.78 16916.1 4020.47 16916.1 3905.28C16916.1 3782.15 16943.9 3668.95 16999.5 3565.68C17057.1 3462.41 17147.4 3379.99 17270.6 3318.43C17393.7 3254.88 17552.6 3223.1 17747.2 3223.1C17999.4 3223.1 18193.1 3256.86 18328.1 3324.39C18465.1 3389.92 18535.6 3508.09 18539.6 3678.88C18565.4 3609.37 18574.4 3544.83 18566.4 3485.25C18560.5 3423.69 18545.6 3359.14 18521.7 3291.62C18662.7 3289.63 18783.9 3287.65 18885.2 3285.66C18988.4 3281.69 19081.8 3278.71 19165.2 3276.72C19248.6 3272.75 19329 3270.76 19406.5 3270.76C19434.3 3401.84 19449.2 3543.84 19451.2 3696.76C19453.2 3849.68 19443.2 4005.58 19421.4 4164.45C19276.4 4162.47 19154.3 4147.57 19055 4119.77C18955.7 4091.97 18859.3 4049.27 18766 3991.67L18715.4 4063.17C18765 4094.95 18810.7 4120.76 18852.4 4140.62C18894.1 4158.5 18931.8 4174.38 18965.6 4188.29C19086.7 4237.94 19186 4291.56 19263.5 4349.15C19340.9 4404.76 19398.5 4473.27 19436.3 4554.7C19474 4634.14 19492.9 4733.44 19492.9 4852.6C19492.9 4997.57 19467.1 5112.76 19415.4 5198.16C19363.8 5283.55 19296.3 5347.1 19212.9 5388.81C19131.4 5428.53 19043.1 5454.35 18947.7 5466.26C18854.4 5480.17 18765 5487.12 18679.6 5487.12ZM19606 5442.43C19590.1 5402.71 19577.2 5352.07 19567.3 5290.5C19557.4 5226.95 19551.4 5160.42 19549.4 5090.91C19549.4 5021.4 19551.4 4955.87 19555.4 4894.3C19561.3 4830.75 19571.3 4779.12 19585.2 4739.4C19614.9 4727.48 19643.7 4708.61 19671.5 4682.8C19699.3 4656.98 19722.2 4618.25 19740.1 4566.62C19759.9 4514.98 19769.9 4444.48 19769.9 4355.11C19769.9 4267.73 19757.9 4200.2 19734.1 4152.54C19712.3 4102.89 19686.4 4067.14 19656.6 4045.3C19628.8 4021.46 19605 4004.58 19585.2 3994.65C19567.3 3960.89 19554.4 3913.23 19546.4 3851.66C19538.5 3788.11 19534.5 3719.6 19534.5 3646.11C19536.5 3572.63 19542.5 3502.13 19552.4 3434.61C19562.3 3367.08 19577.2 3311.48 19597.1 3267.79C19618.9 3269.77 19637.8 3272.75 19653.7 3276.72C19669.6 3278.71 19687.4 3280.69 19707.3 3282.68C19699.3 3405.81 19724.2 3512.06 19781.8 3601.43C19839.4 3688.81 19917.8 3751.37 20017.1 3789.11C20118.4 3826.84 20225.6 3834.78 20338.8 3812.94C20243.5 3808.96 20155.1 3784.14 20073.7 3738.46C19994.3 3690.8 19929.7 3628.24 19880.1 3550.79C19832.4 3471.35 19808.6 3382.97 19808.6 3285.66C19808.6 3204.23 19827.4 3125.79 19865.2 3050.32C19904.9 2972.87 19970.4 2909.32 20061.8 2859.67C20153.1 2808.03 20276.3 2782.21 20431.2 2782.21C20679.4 2782.21 20860.2 2844.77 20973.4 2969.89C21088.5 3093.02 21146.1 3275.73 21146.1 3518.02C21146.1 3631.22 21136.2 3735.48 21116.3 3830.81C21098.5 3924.15 21079.6 4014.51 21059.7 4101.9C21041.9 4187.29 21032.9 4274.68 21032.9 4364.05C21032.9 4449.44 21041.9 4517.96 21059.7 4569.59C21079.6 4621.23 21103.4 4659.96 21131.2 4685.77C21161 4709.61 21189.8 4727.48 21217.6 4739.4C21231.5 4779.12 21240.5 4830.75 21244.4 4894.3C21250.4 4955.87 21252.4 5021.4 21250.4 5090.91C21250.4 5160.42 21245.4 5226.95 21235.5 5290.5C21225.6 5352.07 21212.7 5402.71 21196.8 5442.43C21141.2 5436.47 21068.7 5429.52 20979.3 5421.58C20891.9 5415.62 20796.6 5409.66 20693.3 5403.71C20590.1 5399.73 20486.8 5397.75 20383.5 5397.75C20288.2 5397.75 20190.9 5399.73 20091.6 5403.71C19994.3 5409.66 19902.9 5415.62 19817.5 5421.58C19732.1 5429.52 19661.6 5436.47 19606 5442.43ZM22149.4 5907.15C21881.3 5907.15 21673.7 5855.52 21526.8 5752.24C21379.8 5648.97 21306.3 5478.18 21306.3 5239.86C21306.3 5140.56 21325.2 5041.26 21362.9 4941.97C21402.6 4842.67 21461.2 4756.28 21538.7 4682.8C21640 4754.29 21769.1 4809.9 21925.9 4849.62L21949.8 4766.21C21779 4722.51 21646.9 4662.94 21553.6 4587.47C21460.2 4512 21395.7 4425.61 21359.9 4328.3C21324.2 4230.99 21306.3 4129.7 21306.3 4024.44C21306.3 3881.45 21341.1 3750.38 21410.6 3631.22C21480.1 3510.08 21586.3 3412.76 21729.3 3339.28C21872.3 3265.8 22054 3229.06 22274.5 3229.06C22391.7 3229.06 22488 3241.97 22563.4 3267.79C22638.9 3293.6 22699.5 3326.37 22745.2 3366.09C22790.8 3403.83 22823.6 3444.54 22843.5 3488.23C22863.3 3327.37 22908 3195.3 22977.5 3092.03C23049 2988.76 23137.4 2912.3 23242.7 2862.65C23347.9 2811.01 23462.1 2785.19 23585.2 2785.19C23688.5 2785.19 23781.8 2808.03 23865.3 2853.71C23948.7 2897.4 24014.2 2960.95 24061.9 3044.36C24111.5 3127.77 24136.3 3229.06 24136.3 3348.22C24136.3 3465.39 24114.5 3562.7 24070.8 3640.16C24029.1 3717.61 23972.5 3776.2 23901 3815.92C23829.5 3853.65 23750.1 3872.52 23662.7 3872.52C23583.2 3872.52 23511.8 3866.56 23448.2 3854.64C23384.6 3840.74 23329 3822.87 23281.4 3801.02L23239.7 3875.5C23275.4 3895.35 23317.1 3911.24 23364.8 3923.16C23440.3 3945 23515.7 3958.91 23591.2 3964.86C23666.7 3970.82 23737.2 3975.79 23802.7 3979.76C23868.2 3981.74 23925.8 3990.68 23975.5 4006.57C24027.1 4022.46 24066.8 4051.25 24094.6 4092.96C24124.4 4134.67 24139.3 4197.22 24139.3 4280.63C24139.3 4407.74 24088.7 4513.99 23987.4 4599.38C23888.1 4682.8 23752.1 4746.35 23579.3 4790.04C23406.5 4831.74 23209.9 4857.56 22989.4 4867.49L22992.4 4953.88C23137.4 4951.9 23269.5 4952.89 23388.6 4956.86C23509.8 4960.83 23617 4976.72 23710.3 5004.52C23803.7 5032.33 23882.1 5079 23945.7 5144.54C24009.2 5210.07 24056.9 5301.43 24088.7 5418.6C24122.4 5537.76 24139.3 5689.69 24139.3 5874.38C24030.1 5900.2 23912.9 5913.11 23787.8 5913.11C23664.7 5915.09 23545.5 5904.17 23430.3 5880.34C23388.6 5850.55 23330 5834.66 23254.6 5832.68C23181.1 5830.69 23090.7 5835.66 22983.5 5847.57C22876.2 5861.47 22753.1 5874.38 22614.1 5886.3C22475.1 5900.2 22320.2 5907.15 22149.4 5907.15ZM22643.9 4092.96H22801.8V3863.58H22643.9V4092.96ZM24254.4 5442.43C24234.5 5378.88 24219.7 5303.41 24209.7 5216.03C24201.8 5128.65 24199.8 5041.26 24203.8 4953.88C24207.7 4866.5 24217.7 4794.01 24233.6 4736.42C24279.2 4724.5 24320.9 4693.72 24358.7 4644.07C24396.4 4592.43 24415.3 4507.04 24415.3 4387.88C24415.3 4286.59 24404.3 4208.15 24382.5 4152.54C24362.6 4094.95 24339.8 4054.23 24314 4030.4C24288.2 4006.57 24265.3 3993.66 24245.5 3991.67C24225.6 3926.14 24211.7 3848.68 24203.8 3759.32C24197.8 3667.96 24198.8 3577.6 24206.7 3488.23C24216.7 3398.86 24233.6 3325.38 24257.4 3267.79C24350.7 3279.7 24456 3289.63 24573.2 3297.58C24690.3 3303.53 24810.5 3306.51 24933.6 3306.51C25056.7 3306.51 25177.9 3305.52 25297 3303.53C25416.2 3299.56 25514.5 3295.59 25592 3291.62C25566.1 3319.42 25538.3 3367.08 25508.6 3434.61C25480.7 3500.15 25457.9 3569.65 25440 3643.14C25424.1 3716.62 25419.2 3781.16 25425.1 3836.77C25478.8 3660.02 25581 3518.02 25732 3410.78C25882.9 3301.55 26088.5 3246.93 26348.6 3246.93C26461.8 3246.93 26558.1 3256.86 26637.6 3276.72C26719 3294.6 26785.5 3328.36 26837.2 3378.01C26890.8 3427.66 26932.5 3500.15 26962.3 3595.47C26990.1 3676.9 27003 3760.31 27001 3845.71C26999 3929.12 26993.1 4013.52 26983.1 4098.92C26973.2 4182.33 26968.2 4265.74 26968.2 4349.15C26968.2 4440.51 26977.2 4512.99 26995.1 4566.62C27012.9 4618.25 27035.8 4656.98 27063.6 4682.8C27093.4 4708.61 27122.2 4726.49 27150 4736.42C27167.8 4794.01 27177.8 4866.5 27179.8 4953.88C27183.7 5041.26 27181.7 5128.65 27173.8 5216.03C27165.8 5303.41 27151.9 5378.88 27132.1 5442.43C27056.6 5434.49 26965.3 5424.56 26858 5412.64C26750.8 5402.71 26615.7 5397.75 26452.9 5397.75C26305.9 5397.75 26168.9 5402.71 26041.8 5412.64C25916.7 5424.56 25818.4 5434.49 25746.9 5442.43C25736.9 5388.81 25729 5318.31 25723 5230.93C25717.1 5141.56 25715.1 5049.21 25717.1 4953.88C25721.1 4858.55 25729 4776.14 25740.9 4706.63V4295.53H25630.7V4706.63C25644.6 4776.14 25652.5 4858.55 25654.5 4953.88C25658.5 5049.21 25657.5 5141.56 25651.5 5230.93C25645.6 5318.31 25635.7 5388.81 25621.8 5442.43C25574.1 5436.47 25521.5 5429.52 25463.9 5421.58C25408.3 5415.62 25339.7 5409.66 25258.3 5403.71C25176.9 5399.73 25075.6 5397.75 24954.5 5397.75C24805.5 5397.75 24671.5 5402.71 24552.3 5412.64C24435.1 5422.57 24335.8 5432.5 24254.4 5442.43ZM28565 5493.07C28241.3 5493.07 27977.2 5448.39 27772.6 5359.02C27570.1 5267.67 27421.1 5137.58 27325.8 4968.78C27230.5 4799.97 27182.8 4596.41 27182.8 4358.09C27182.8 4084.02 27233.4 3863.58 27334.7 3696.76C27438 3529.93 27597.9 3408.79 27814.3 3333.32C28030.8 3255.87 28309.8 3217.14 28651.4 3217.14C28905.6 3217.14 29132 3243.95 29330.6 3297.58C29531.2 3351.2 29689.1 3430.64 29804.3 3535.89C29919.5 3639.16 29977.1 3767.26 29977.1 3920.18C29977.1 3975.79 29968.1 4032.39 29950.3 4089.98C29934.4 4145.59 29900.6 4196.23 29849 4241.91C29797.3 4287.59 29719.9 4324.33 29616.6 4352.13C29513.3 4379.93 29375.3 4393.84 29202.5 4393.84C29087.4 4393.84 28983.1 4392.84 28889.7 4390.86C28798.4 4386.88 28714 4380.93 28636.5 4372.98H28487.6V4593.43H28633.6V4474.27C29054.6 4454.41 29499.4 4454.41 29968.1 4474.27C29968.1 4694.71 29920.5 4880.4 29825.1 5031.33C29729.8 5182.27 29579.9 5297.46 29375.3 5376.89C29170.8 5454.35 28900.7 5493.07 28565 5493.07ZM28487.6 4218.08H28633.6V4045.3H28487.6V4218.08ZM30087.2 5442.43C30067.4 5378.88 30052.5 5303.41 30042.6 5216.03C30034.6 5128.65 30032.6 5041.26 30036.6 4953.88C30040.6 4866.5 30050.5 4794.01 30066.4 4736.42C30112.1 4724.5 30153.8 4693.72 30191.5 4644.07C30229.2 4592.43 30248.1 4507.04 30248.1 4387.88C30248.1 4286.59 30237.2 4208.15 30215.3 4152.54C30195.5 4094.95 30172.6 4054.23 30146.8 4030.4C30121 4006.57 30098.2 3993.66 30078.3 3991.67C30058.4 3926.14 30044.5 3848.68 30036.6 3759.32C30030.6 3667.96 30031.6 3577.6 30039.6 3488.23C30049.5 3398.86 30066.4 3325.38 30090.2 3267.79C30183.6 3279.7 30288.8 3289.63 30406 3297.58C30523.2 3303.53 30643.3 3306.51 30766.5 3306.51C30889.6 3306.51 31010.7 3305.52 31129.9 3303.53C31249 3299.56 31347.3 3295.59 31424.8 3291.62C31404.9 3313.46 31384.1 3346.23 31362.2 3389.92C31340.4 3431.63 31320.5 3477.31 31302.7 3526.96C31286.8 3576.61 31274.9 3624.27 31266.9 3669.95C31259 3713.64 31258 3747.4 31263.9 3771.23C31297.7 3675.9 31350.3 3586.54 31421.8 3503.12C31493.3 3419.71 31585.7 3352.19 31698.9 3300.55C31814.1 3246.93 31950.1 3220.12 32107 3220.12C32309.6 3220.12 32470.4 3276.72 32589.6 3389.92C32708.7 3503.12 32768.3 3680.87 32768.3 3923.16C32768.3 4157.5 32699.8 4341.21 32562.8 4474.27C32427.7 4607.33 32245 4673.86 32014.6 4673.86C31869.7 4673.86 31753.5 4639.1 31666.1 4569.59C31580.7 4498.1 31539 4396.81 31541 4265.74H31454.6C31452.6 4376.95 31472.5 4469.3 31514.2 4542.78C31557.9 4616.26 31622.4 4678.82 31707.8 4730.46C31721.7 4772.16 31730.6 4824.79 31734.6 4888.34C31740.6 4951.9 31742.6 5019.42 31740.6 5090.91C31738.6 5160.42 31732.6 5226.95 31722.7 5290.5C31712.8 5352.07 31699.9 5402.71 31684 5442.43C31618.4 5436.47 31535 5429.52 31433.7 5421.58C31332.5 5415.62 31225.2 5409.66 31112 5403.71C30998.8 5399.73 30890.6 5397.75 30787.3 5397.75C30638.4 5397.75 30504.3 5402.71 30385.1 5412.64C30268 5422.57 30168.7 5432.5 30087.2 5442.43Z" fill="#FF005C"/>
<path d="M720.044 1898.4H1586.38C1827.44 1898.4 2023.31 1976.25 2173.98 2131.94C2329.66 2287.63 2407.51 2486 2407.51 2727.07L2181.51 6817.66L1721.98 7247.06H720.044V1898.4ZM1608.98 6712.2C1654.18 6682.06 1676.78 6649.42 1676.78 6614.26L1759.64 2440.8C1759.64 2410.67 1729.51 2395.6 1669.24 2395.6H1330.24C1315.18 2395.6 1300.11 2400.63 1285.04 2410.67C1269.98 2420.72 1262.44 2430.76 1262.44 2440.8V6704.66L1330.24 6749.86L1608.98 6712.2Z" fill="#FF005C"/>
<path d="M4022.68 7087.86L3156.79 7115.57C2915.85 7123.28 2717.59 7051.74 2562.02 6900.95C2401.44 6750.32 2317.29 6554.53 2309.58 6313.59L2404.64 2217.86L2850.21 1773.98L3851.63 1741.94L4022.68 7087.86ZM2980.25 2304.96C2936.04 2336.52 2914.5 2369.87 2915.62 2405.01L2966.27 6578.99C2967.23 6609.11 2997.83 6623.2 3058.07 6621.27L3396.89 6610.43C3411.95 6609.95 3426.85 6604.45 3441.59 6593.93C3456.33 6583.41 3463.53 6573.13 3463.21 6563.09L3326.85 2301.41L3257.64 2258.4L2980.25 2304.96Z" fill="#FF005C"/>
<path d="M225.762 4520.87C225.54 4229.57 307.301 4009.21 471.046 3859.79C638.432 3710.37 876.881 3635.54 1186.39 3635.3L1404.87 3635.14L1405.3 4203.18L1143.13 4203.38C895.52 4203.57 771.795 4307.44 771.953 4514.99C772.03 4616.95 801.219 4693.39 859.519 4744.33C921.462 4798.9 1019.8 4826.14 1154.53 4826.03C1314.74 4825.91 1454.91 4789.39 1575.01 4716.47C1698.76 4643.55 1846.13 4508.71 2017.12 4311.95C2235.41 4064.18 2431.91 3891.07 2606.62 3792.62C2784.97 3694.17 2985.2 3644.86 3207.32 3644.69C3509.55 3644.46 3742.65 3720.75 3906.63 3873.56C4074.24 4026.36 4158.16 4248.42 4158.38 4539.72C4158.6 4827.39 4075.02 5044.11 3907.63 5189.89C3743.88 5339.31 3507.26 5414.13 3197.75 5414.37L3039.35 5414.49L3038.92 4846.45L3235.55 4846.3C3366.63 4846.2 3461.29 4820.63 3519.51 4769.61C3581.37 4718.59 3612.27 4643.92 3612.19 4545.6C3612.04 4345.33 3489.98 4245.29 3246.01 4245.47C3107.64 4245.58 2978.4 4282.09 2858.3 4355.01C2738.19 4431.57 2592.64 4568.23 2421.65 4764.99C2203.37 5016.4 2005.05 5189.52 1826.7 5284.32C1648.34 5379.13 1439.01 5426.63 1198.68 5426.81C885.528 5427.05 645.142 5348.95 477.523 5192.5C309.907 5039.69 225.986 4815.82 225.762 4520.87Z" fill="black"/>
</svg>
