<svg width="613" height="170" viewBox="0 0 613 170" fill="none" xmlns="http://www.w3.org/2000/svg">

<path d="M13.4707 35.5127H29.677C34.1864 35.5127 37.8505 36.969 40.6691 39.8815C43.5813 42.7939 45.0376 46.5048 45.0376 51.0144L40.8099 127.536L32.2136 135.569H13.4707V35.5127ZM30.0998 125.563C30.9453 124.999 31.3681 124.389 31.3681 123.731L32.9181 45.6592C32.9181 45.0956 32.3545 44.8137 31.227 44.8137H24.8855C24.6037 44.8137 24.3218 44.9078 24.0399 45.0956C23.7582 45.2836 23.6171 45.4714 23.6171 45.6592V125.422L24.8855 126.268L30.0998 125.563Z" fill="#FF005C"/>
<path d="M75.2515 132.59L59.0536 133.109C54.5464 133.253 50.8376 131.915 47.9274 129.094C44.9235 126.276 43.3493 122.614 43.2051 118.106L44.9833 41.4888L53.3185 33.1853L72.0517 32.5859L75.2515 132.59ZM55.7511 43.1182C54.9241 43.7086 54.5211 44.3324 54.5421 44.9898L55.4896 123.071C55.5075 123.635 56.08 123.898 57.2069 123.862L63.5451 123.659C63.8268 123.65 64.1055 123.547 64.3813 123.351C64.657 123.154 64.7917 122.962 64.7857 122.774L62.2348 43.0518L60.9402 42.2472L55.7511 43.1182Z" fill="#FF005C"/>
<path d="M4.22266 84.5701C4.21851 79.1208 5.74799 74.9986 8.81112 72.2034C11.9424 69.4083 16.403 68.0085 22.1929 68.004L26.2799 68.001L26.2879 78.6271L21.3836 78.6309C16.7516 78.6344 14.4371 80.5775 14.4401 84.4601C14.4415 86.3674 14.9876 87.7973 16.0782 88.7503C17.2369 89.7711 19.0765 90.2807 21.5969 90.2786C24.5939 90.2764 27.216 89.5932 29.4626 88.2291C31.7776 86.865 34.5344 84.3426 37.7331 80.6619C41.8166 76.0269 45.4924 72.7886 48.7607 70.9469C52.097 69.1052 55.8427 68.1828 59.9978 68.1796C65.6515 68.1753 70.0121 69.6025 73.0796 72.461C76.215 75.3194 77.7849 79.4734 77.789 84.9227C77.7931 90.3041 76.2296 94.3582 73.0983 97.0852C70.0351 99.8804 65.6087 101.28 59.8188 101.285L56.8556 101.287L56.8476 90.6606L60.5259 90.6578C62.978 90.6559 64.7487 90.1776 65.8378 89.2232C66.995 88.2688 67.5731 86.8719 67.5716 85.0327C67.5688 81.2863 65.2854 79.4149 60.7216 79.4182C58.1331 79.4203 55.7155 80.1033 53.4688 81.4674C51.2219 82.8996 48.4992 85.456 45.3005 89.1368C41.2172 93.8398 37.5073 97.0783 34.1709 98.8517C30.8344 100.625 26.9185 101.514 22.4228 101.517C16.5647 101.522 12.0679 100.061 8.93228 97.1341C5.79674 94.2755 4.22685 90.0876 4.22266 84.5701Z" fill="white"/>
</svg>
