<?xml version="1.0" encoding="iso-8859-1"?>
<!-- Uploaded to: SVG Repo, www.svgrepo.com, Generator: SVG Repo Mixer Tools -->
<svg height="800px" width="800px" version="1.1" id="Capa_1" xmlns="http://www.w3.org/2000/svg" xmlns:xlink="http://www.w3.org/1999/xlink" 
	 viewBox="0 0 45.405 45.405" xml:space="preserve">
<g>
	<path style="fill:#010002;" d="M7.577,27.936c0.754,0,1.471-0.139,2.139-0.388c1.129-0.423,2.865-1.246,4.068-1.076
		c1.627,0.23,3.557,1.043,3.557,3.622c0,1.217-1.051,2.906-1.488,4.042c-0.264,0.681-0.408,1.418-0.408,2.193
		c0,3.46,2.805,6.265,6.266,6.265c0.559,0,1.266-0.197,1.912-0.434c1.025-0.374,2.787-0.885,3.992-1.065
		c16.178-2.415,21.305-12.997,15.451-26.47C40.613,8.98,32.261,1.822,20.929,2.923C5.538,4.42-1.396,18.637,0.233,22.702
		C1.52,25.914,4.118,27.936,7.577,27.936z M40.401,22.718c0.758,1.047,0.193,2.75-1.267,3.806c-1.461,1.055-3.254,1.06-4.012,0.012
		c-0.756-1.047-0.189-2.751,1.27-3.805C37.848,21.675,39.645,21.671,40.401,22.718z M33.375,13.917
		c1.248-1.295,3.018-1.617,3.947-0.719c0.93,0.896,0.672,2.673-0.58,3.97c-1.25,1.295-3.016,1.617-3.943,0.719
		C31.87,16.988,32.125,15.212,33.375,13.917z M25.35,10.11c0.648-1.679,2.152-2.662,3.359-2.196
		c1.205,0.465,1.656,2.203,1.008,3.883c-0.648,1.679-2.15,2.662-3.357,2.196C25.157,13.526,24.706,11.788,25.35,10.11z
		 M25.038,31.125c2.484-0.28,4.658,0.937,4.859,2.72c0.203,1.782-1.645,3.455-4.127,3.737c-2.484,0.281-4.658-0.935-4.861-2.718
		C20.708,33.081,22.555,31.408,25.038,31.125z M17.584,7.696c1.291-0.052,2.397,1.363,2.471,3.163
		c0.07,1.797-0.918,3.296-2.209,3.349c-1.291,0.051-2.399-1.365-2.469-3.162C15.303,9.247,16.293,7.747,17.584,7.696z M8.25,14.747
		c1.154-0.585,2.748,0.236,3.565,1.842c0.82,1.603,0.547,3.377-0.606,3.964c-1.148,0.587-2.746-0.236-3.564-1.839
		C6.829,17.109,7.1,15.334,8.25,14.747z"/>
</g>
</svg>